<?xml version="1.0" standalone="no"?>
<!DOCTYPE svg PUBLIC "-//W3C//DTD SVG 20010904//EN"
 "http://www.w3.org/TR/2001/REC-SVG-20010904/DTD/svg10.dtd">
<svg version="1.0" xmlns="http://www.w3.org/2000/svg"
 width="867.000000pt" height="203.000000pt" viewBox="0 0 867.000000 203.000000"
 preserveAspectRatio="xMidYMid meet">

<g transform="translate(0.000000,203.000000) scale(0.100000,-0.100000)"
fill="#000000" stroke="none">
<path d="M276 2000 c-58 -23 -109 -69 -139 -125 -22 -40 -22 -42 -25 -804 -3
-842 -4 -829 59 -904 17 -21 54 -50 83 -65 l51 -27 790 0 790 0 52 29 c28 15
65 45 81 65 64 79 62 56 62 880 0 850 4 808 -80 892 -82 82 -46 79 -914 79
-726 -1 -763 -2 -810 -20z m1019 -445 l25 -24 0 -218 c0 -214 1 -219 25 -265
14 -27 25 -64 25 -85 0 -24 -9 -52 -25 -75 -24 -35 -25 -44 -25 -182 l0 -144
-31 -26 c-35 -30 -59 -28 -96 7 -22 19 -23 28 -23 154 l0 133 -120 0 c-131 0
-176 11 -204 51 -33 48 -29 59 126 314 47 77 114 189 148 248 35 60 73 115 84
123 30 21 64 17 91 -11z m-529 -218 c19 -17 27 -33 27 -56 0 -28 -15 -48 -111
-144 l-111 -112 110 -112 c93 -96 109 -118 109 -145 0 -42 -34 -78 -74 -78
-26 0 -52 22 -173 143 -198 198 -199 185 34 410 74 71 129 117 142 117 11 0
32 -11 47 -23z m843 -41 c29 -28 93 -95 142 -148 127 -139 128 -131 -53 -314
-125 -127 -145 -144 -174 -144 -24 0 -39 8 -54 27 -37 47 -22 75 97 195 l107
108 -112 113 c-71 73 -112 122 -112 135 0 53 43 96 85 85 11 -3 44 -28 74 -57z"/>
<path d="M1084 1108 c-43 -73 -80 -136 -82 -140 -2 -5 35 -8 82 -8 l86 0 0
140 c0 77 -1 140 -3 140 -2 0 -39 -60 -83 -132z"/>
<path d="M3035 1425 c-16 -15 -25 -36 -25 -55 0 -86 127 -109 161 -29 32 80
-75 146 -136 84z"/>
<path d="M5623 1429 c-50 -24 -93 -100 -93 -161 0 -36 -2 -38 -30 -38 l-30 0
0 -60 0 -60 30 0 30 0 0 -210 0 -210 75 0 75 0 0 210 0 210 53 0 54 0 -1 60
-1 60 -52 0 c-51 0 -53 1 -53 28 0 46 25 72 71 72 l40 0 -3 58 -3 57 -60 3
c-45 2 -70 -3 -102 -19z"/>
<path d="M2688 1423 c-8 -10 -45 -63 -83 -118 -38 -55 -111 -159 -162 -231
-91 -128 -93 -133 -93 -188 l0 -56 185 0 185 0 0 -70 0 -70 70 0 70 0 0 70 0
70 80 0 80 0 0 -98 c0 -109 -11 -132 -63 -132 -26 0 -27 -1 -27 -65 l0 -65 36
0 c58 0 115 22 150 57 50 50 56 101 53 424 l-3 279 -73 0 -73 0 0 -135 0 -135
-80 0 -80 0 0 240 0 240 -78 0 c-63 0 -82 -4 -94 -17z m32 -318 l0 -145 -96 0
c-53 0 -94 4 -92 9 4 11 182 281 186 281 1 0 2 -65 2 -145z"/>
<path d="M3840 1065 l0 -375 70 0 70 0 0 32 0 32 28 -26 c49 -48 121 -60 207
-37 55 15 118 83 140 149 24 72 17 217 -13 275 -68 133 -218 165 -330 70 l-33
-28 3 142 3 141 -72 0 -73 0 0 -375z m339 19 c52 -43 66 -136 32 -211 -32 -69
-104 -92 -168 -53 -39 23 -49 41 -58 101 -9 60 9 125 45 161 39 38 105 40 149
2z"/>
<path d="M5920 1285 l0 -55 -35 0 c-37 0 -37 0 -37 -80 0 -38 2 -40 37 -40
l35 0 0 -160 c0 -228 18 -261 141 -268 38 -2 80 -1 94 2 23 6 25 11 25 65 l0
59 -40 -5 c-66 -9 -70 -1 -70 163 l0 144 55 0 55 0 0 60 0 60 -55 0 -55 0 0
55 0 55 -75 0 -75 0 0 -55z"/>
<path d="M3394 1217 c-111 -53 -169 -155 -162 -282 5 -80 27 -134 75 -181 52
-52 89 -67 178 -72 103 -5 167 19 226 86 98 112 91 307 -16 400 -57 50 -94 65
-175 69 -64 3 -83 0 -126 -20z m171 -117 c28 -11 61 -59 71 -103 11 -53 -5
-116 -41 -155 -31 -34 -38 -37 -88 -37 -41 0 -61 5 -77 20 -35 32 -53 76 -53
130 0 72 27 123 77 146 40 19 60 18 111 -1z"/>
<path d="M4545 1224 c-111 -41 -158 -166 -94 -248 28 -35 60 -50 149 -70 113
-26 148 -59 103 -98 -44 -38 -120 -26 -159 25 -18 24 -23 25 -81 19 l-61 -7
13 -38 c29 -86 99 -126 216 -127 131 0 211 58 225 161 11 88 -50 148 -172 170
-91 17 -124 34 -124 63 0 31 34 56 76 56 34 0 84 -33 84 -55 0 -10 14 -12 63
-8 34 3 64 7 66 9 3 3 -4 25 -15 51 -39 95 -172 140 -289 97z"/>
<path d="M5083 1227 c-65 -24 -119 -73 -149 -133 -25 -51 -29 -70 -29 -144 0
-95 18 -141 76 -198 48 -47 95 -66 177 -70 88 -5 146 14 204 66 54 48 78 101
85 181 15 181 -101 313 -275 310 -31 0 -71 -6 -89 -12z m143 -123 c50 -24 77
-75 77 -143 0 -69 -17 -108 -63 -139 -27 -18 -44 -23 -76 -19 -80 9 -119 60
-119 157 1 68 27 118 75 142 43 22 63 22 106 2z"/>
<path d="M7256 1224 c-55 -20 -100 -57 -120 -97 -28 -61 -24 -67 50 -67 60 0
68 3 94 30 22 23 37 30 67 30 57 0 85 -23 81 -68 -3 -34 -6 -37 -38 -40 -198
-15 -290 -73 -290 -184 0 -48 31 -100 76 -125 66 -38 193 -27 233 20 19 24 31
21 31 -8 0 -24 2 -25 65 -25 l65 0 0 193 c0 216 -8 258 -55 302 -56 53 -173
71 -259 39z m174 -343 c0 -31 -6 -44 -30 -64 -40 -34 -81 -42 -119 -22 -24 12
-31 22 -31 44 0 49 51 76 148 80 31 1 32 0 32 -38z"/>
<path d="M7874 1226 c-17 -8 -40 -27 -52 -42 l-21 -29 -1 38 0 37 -70 0 -70 0
0 -270 0 -270 76 0 75 0 -2 98 c-3 223 -2 239 30 274 27 30 35 33 85 33 l56 0
0 73 0 72 -37 0 c-21 -1 -52 -7 -69 -14z"/>
<path d="M8200 1231 c-128 -39 -198 -153 -188 -305 10 -153 107 -245 258 -246
87 0 134 15 180 56 35 32 69 89 58 99 -2 2 -28 7 -58 10 -48 5 -56 3 -81 -21
-72 -69 -209 -26 -209 66 0 19 8 20 181 20 l182 0 -6 73 c-9 123 -53 194 -147
236 -46 21 -122 26 -170 12z m115 -115 c33 -14 65 -59 65 -91 0 -13 -17 -15
-111 -15 l-111 0 7 28 c11 45 61 89 103 91 7 1 28 -5 47 -13z"/>
<path d="M6220 1227 c0 -5 89 -289 133 -427 l34 -105 80 -3 80 -3 32 108 c69
228 79 258 85 243 3 -8 28 -89 54 -180 l48 -165 76 -3 76 -3 15 48 c9 26 46
142 83 258 37 116 69 216 71 223 4 9 -14 12 -68 12 l-74 0 -50 -185 c-27 -101
-51 -182 -54 -180 -2 3 -27 85 -56 183 l-51 177 -71 3 -72 3 -26 -88 c-70
-238 -85 -287 -88 -290 -2 -1 -20 59 -41 135 -21 75 -44 161 -52 190 l-15 52
-75 0 c-41 0 -74 -2 -74 -3z"/>
</g>
</svg>
